Coordinates
version=1
nRows=17
nColumns=40
inDegrees=yes

Units are S.I. units (second, meters, Newtons, ...)
Angles are in degrees.

endheader
time	pelvis_tilt	pelvis_list	pelvis_rotation	pelvis_tx	pelvis_ty	pelvis_tz	hip_flexion_r	hip_adduction_r	hip_rotation_r	knee_angle_r	knee_angle_r_beta	ankle_angle_r	subtalar_angle_r	mtp_angle_r	hip_flexion_l	hip_adduction_l	hip_rotation_l	knee_angle_l	knee_angle_l_beta	ankle_angle_l	subtalar_angle_l	mtp_angle_l	lumbar_extension	lumbar_bending	lumbar_rotation	arm_flex_r	arm_add_r	arm_rot_r	elbow_flex_r	pro_sup_r	wrist_flex_r	wrist_dev_r	arm_flex_l	arm_add_l	arm_rot_l	elbow_flex_l	pro_sup_l	wrist_flex_l	wrist_dev_l
      1.51000000	      2.87121021	      0.61905379	     -8.61147204	      0.51188960	      0.88020082	     -1.41988124	    -14.04061328	     -4.44100586	     -6.13122306	    -28.09536096	     -0.49035655	      6.23236952	      2.59615832	     -7.84015260	     22.94606626	      0.96735985	      9.59838277	    -19.65404161	     -0.34302774	     -5.50403802	      4.04538600	     -6.58525245	     -6.04814254	     -1.03924500	      7.98025320	     14.75652649	    -12.32294310	     13.18292717	     33.25329234	     89.95437384	      0.00000000	      0.00000000	    -10.41125439	      7.08162510	    -11.41333024	      5.25244891	     89.95437384	      0.00000000	      0.00000000
      1.52000000	      2.87286719	      1.18387120	     -8.50489033	      0.52747209	      0.88115074	     -1.42151092	    -13.65386853	     -5.29388596	     -6.23481932	    -30.08194830	     -0.52502904	      3.74804855	      1.76500340	     -7.26631170	     22.90244599	      0.25923178	      9.59093858	    -21.13441928	     -0.36886520	     -4.89623179	      4.23768391	     -6.32630011	     -5.76370160	     -1.60888396	      7.63550041	     14.37049994	    -12.09907871	     12.80126245	     33.63134252	     89.95437384	      0.00000000	      0.00000000	    -10.81436307	      7.17729250	    -11.60963899	      4.82327644	     89.95437384	      0.00000000	      0.00000000
      1.53000000	      2.75568372	      1.72201785	     -8.41714166	      0.54313310	      0.88214677	     -1.42313899	    -12.79330179	     -6.12492878	     -6.43761338	    -32.49196226	     -0.56709172	      0.78033449	      0.61957273	     -6.57521181	     22.80255650	     -0.40005631	      9.88884134	    -22.50696722	     -0.39282068	     -3.76304198	      4.46029499	     -6.06963146	     -5.31470665	     -2.10961729	      7.31224101	     13.88971780	    -11.81203522	     12.32995002	     33.81349361	     89.95437384	      0.00000000	      0.00000000	    -11.13128855	      7.25603022	    -11.84466886	      4.40216892	     89.95437384	      0.00000000	      0.00000000
      1.54000000	      2.35960244	      2.28145296	     -8.21058126	      0.55850358	      0.88293825	     -1.42505092	    -11.31510530	     -6.88246465	     -6.58409500	    -35.22893576	     -0.61486092	     -3.09165500	     -1.16963386	     -5.63970887	     22.77174619	     -1.19655041	      9.82325259	    -23.45541175	     -0.40937416	     -2.65262204	      4.01035184	     -5.80119430	     -4.60317997	     -2.58849805	      6.92967655	     13.34901330	    -11.51627894	     11.82199397	     33.87946000	     89.95437384	      0.00000000	      0.00000000	    -11.33917817	      7.34116769	    -12.16852668	      4.06756804	     89.95437384	      0.00000000	      0.00000000
      1.55000000	      2.08396393	      2.63803769	     -8.08669449	      0.57325342	      0.88404973	     -1.42646939	     -9.68589082	     -7.31745522	     -6.41103037	    -38.15197102	     -0.66587751	     -8.01638895	     -3.02410862	     -4.46761357	     22.51609303	     -1.71754716	      9.83934031	    -24.29744338	     -0.42407039	     -1.65024046	      3.55537352	     -5.49402464	     -4.14186297	     -2.90153389	      6.62725280	     12.95119891	    -11.18374216	     11.49563943	     33.69007774	     89.95437384	      0.00000000	      0.00000000	    -11.42427017	      7.49398410	    -12.57745870	      3.94822566	     89.95437384	      0.00000000	      0.00000000
      1.56000000	      1.95925059	      2.97011200	     -8.00262417	      0.58794828	      0.88548454	     -1.42827702	     -8.08926291	     -7.73674700	     -5.97638911	    -40.92799150	     -0.71432821	    -13.34820484	     -5.31738406	     -3.18248619	     21.85736756	     -2.28674343	      9.91233205	    -24.76247965	     -0.43218680	     -0.51283389	      3.17394344	     -5.25967400	     -3.85058297	     -3.14142172	      6.30582272	     12.71102267	    -10.91025524	     11.38821153	     33.13958151	     89.95437384	      0.00000000	      0.00000000	    -11.46034793	      7.55321468	    -13.03929834	      4.01327144	     89.95437384	      0.00000000	      0.00000000
      1.57000000	      1.73634451	      3.00759815	     -7.83807004	      0.60192737	      0.88685561	     -1.42911538	     -6.33405386	     -7.18845778	     -4.55790551	    -43.61927282	     -0.76129993	    -17.36710402	    -10.22293587	     -0.84013229	     21.26181403	     -2.47876262	      9.80186285	    -25.15337808	     -0.43900927	      0.34310812	      2.60933555	     -4.37801924	     -3.61321688	     -3.17633952	      6.01321123	     12.40136454	    -10.60706803	     11.34239643	     32.68772927	     89.95437384	      0.00000000	      0.00000000	    -11.51351175	      7.92689018	    -14.25440636	      4.64365464	     89.95437384	      0.00000000	      0.00000000
      1.58000000	      1.97344284	      3.22041698	     -7.74651007	      0.61611813	      0.88868779	     -1.43043594	     -4.91690276	     -7.33922913	     -3.92897181	    -46.53707693	     -0.81222522	    -18.96660134	    -10.94765171	     -0.31756491	     19.93146457	     -2.96724513	      9.85141590	    -25.10204450	     -0.43811333	      1.39690972	      1.83746160	     -4.33395017	     -3.82604463	     -3.40588953	      5.63588878	     12.34660317	    -10.28891986	     11.53639722	     31.81964774	     89.95437384	      0.00000000	      0.00000000	    -11.35899443	      8.12912240	    -14.65515355	      5.05397317	     89.95437384	      0.00000000	      0.00000000
      1.59000000	      1.53657286	      3.44159661	     -7.65479140	      0.62952233	      0.88916645	     -1.43151528	     -2.43419943	     -7.20418249	     -3.19554968	    -49.85826429	     -0.87019087	    -18.75846651	    -13.70102260	      2.38976185	     19.55526366	     -3.22797322	     10.40599793	    -25.29378974	     -0.44145991	      2.23356088	      0.72379520	     -3.21222069	     -3.34058824	     -3.55275437	      5.29202060	     12.13776283	    -10.02920027	     11.99482998	     31.18811023	     89.95437384	      0.00000000	      0.00000000	    -11.47846267	      8.66377335	    -17.27767621	      6.19478539	     89.95437384	      0.00000000	      0.00000000
      1.60000000	      1.68909737	      3.69577183	     -7.64333084	      0.64288731	      0.89051948	     -1.43238990	     -0.54855110	     -7.32050593	     -2.84556223	    -53.01113473	     -0.92521884	    -16.20811889	    -13.76768709	     12.26230832	     18.28292769	     -3.66453081	     10.79168168	    -25.06968533	     -0.43754855	      3.41160908	     -0.64094049	      0.66489308	     -3.54139881	     -3.83501079	      5.00427815	     12.08463744	     -9.73371877	     12.43126605	     30.34325240	     89.95437384	      0.00000000	      0.00000000	    -11.40394113	      9.26289912	    -19.57596144	      7.45326353	     89.95437384	      0.00000000	      0.00000000
      1.61000000	      1.83270853	      3.91776315	     -7.60874636	      0.65612258	      0.89172869	     -1.43323825	      1.29644489	     -7.44095470	     -2.69470692	    -55.55673511	     -0.96964795	    -14.84010142	    -14.43760508	     11.91288235	     17.00147282	     -4.11743117	     11.07996812	    -24.72714940	     -0.43157017	      4.15219036	     -1.21285977	      0.44133132	     -3.74115168	     -4.08407656	      4.61016694	     12.11199906	     -9.42291474	     13.07407950	     29.33690810	     89.95437384	      0.00000000	      0.00000000	    -11.05676859	      9.59936718	    -19.87626038	      8.20393236	     89.95437384	      0.00000000	      0.00000000
      1.62000000	      2.14492229	      3.62427602	     -7.40189392	      0.66925371	      0.89328988	     -1.43413416	      2.80869228	     -7.09736165	     -2.98535092	    -57.51544809	     -1.00383394	    -14.30778127	    -14.39295990	     11.59577956	     15.56272035	     -4.06169454	     11.09979252	    -24.55217794	     -0.42851634	      4.57414094	     -1.39545503	      0.34195228	     -4.27002095	     -3.75718354	      4.14006013	     11.91226889	     -9.23707945	     13.28455567	     28.85932914	     89.95437384	      0.00000000	      0.00000000	    -10.40945939	      9.77503110	    -20.00418090	      8.66413368	     89.95437384	      0.00000000	      0.00000000
      1.63000000	      2.08404529	      4.13140965	     -7.92411029	      0.68203961	      0.89389268	     -1.43460801	      5.23334256	     -7.49467758	     -2.30367523	    -59.68652074	     -1.04172631	    -12.35464656	    -14.21981789	     10.97850572	     14.42129481	     -4.86024778	     11.01065162	    -23.96424780	     -0.41825503	      5.56578573	     -1.54535940	      0.04835098	     -4.10010408	     -4.24105175	      4.35916237	     11.98997581	     -9.11544362	     14.76907545	     27.53840330	     89.95437384	      0.00000000	      0.00000000	    -10.17683931	     10.62846145	    -24.13180007	     10.18854235	     89.95437384	      0.00000000	      0.00000000
      1.64000000	      2.35926503	      3.86746868	     -7.81850547	      0.69513767	      0.89531898	     -1.43540569	      6.81469222	     -7.09632373	     -2.49238615	    -60.97178391	     -1.06415838	    -11.65472333	    -14.05297094	     10.67784597	     12.98079635	     -4.85466466	     10.93144054	    -23.70225307	     -0.41368236	      6.11056904	     -1.73208335	     -0.05775012	     -4.53616406	     -3.91311577	      4.01913240	     11.75113370	     -8.96050842	     15.01950856	     26.86490744	     89.95437384	      0.00000000	      0.00000000	     -9.35513074	     10.74988890	    -24.18457933	     10.52911216	     89.95437384	      0.00000000	      0.00000000
      1.65000000	      2.66456849	      3.87304081	     -7.99679774	      0.70857146	      0.89670300	     -1.43579005	      8.32644053	     -6.73419922	     -2.02113100	    -61.81306293	     -1.07884147	     -9.86689513	    -13.75901779	     10.23814580	     11.25788672	     -5.19777008	     10.68184250	    -22.97653917	     -0.40101626	      7.11790121	     -2.12081082	     -0.24522658	     -4.80807036	     -3.90829342	      3.90692420	     11.65093803	     -8.73504410	     15.80537561	     25.62692461	     89.95437384	      0.00000000	      0.00000000	     -8.54366317	     10.93031603	    -24.57950410	     10.78031044	     89.95437384	      0.00000000	      0.00000000
      1.66000000	      3.25890372	      3.84178488	     -8.11023233	      0.72217428	      0.89840481	     -1.43643559	      9.42858640	     -6.57700670	     -1.92593716	    -62.27531755	     -1.08690933	     -7.82106618	    -12.31173940	      9.41330753	      9.09398510	     -5.55808247	     10.61414016	    -21.99985324	     -0.38396987	      7.59477027	     -2.07424793	     -0.30913967	     -5.44969907	     -3.86322503	      3.75556887	     11.34640566	     -8.79519285	     17.00639879	     24.98022325	     89.95437384	      0.00000000	      0.00000000	     -7.74319669	     11.28250813	    -25.83960417	     11.45506708	     89.95437384	      0.00000000	      0.00000000
      1.67000000	      3.66500662	      3.63895191	     -8.06342051	      0.73548600	      0.89991562	     -1.43708500	     10.62140915	     -6.09087163	     -1.96194420	    -62.27323713	     -1.08687302	     -6.51359419	    -11.81008165	      8.76360973	      7.18543702	     -5.69814473	     10.31567315	    -21.14676548	     -0.36908068	      8.13783130	     -2.18464241	     -0.40012729	     -5.90575742	     -3.61106121	      3.50282172	     11.01473622	     -8.67752831	     17.44354360	     24.09944636	     89.95437384	      0.00000000	      0.00000000	     -6.79719631	     11.52321376	    -26.63257768	     11.91950062	     89.95437384	      0.00000000	      0.00000000
